<?xml version="1.0" standalone="no"?><!DOCTYPE svg PUBLIC "-//W3C//DTD SVG 1.1//EN" "http://www.w3.org/Graphics/SVG/1.1/DTD/svg11.dtd"><svg t="1480774213810" class="icon" style="" viewBox="0 0 1024 1024" version="1.1" xmlns="http://www.w3.org/2000/svg" p-id="6668" xmlns:xlink="http://www.w3.org/1999/xlink" width="200" height="200"><defs><style type="text/css"></style></defs><path d="M622.599446 360.240621l-43.481304-243.019873L419.951049 305.940924l-235.843426-26.093285 118.922507 211.961506-102.278431 226.894613 232.665037-57.720609 172.632779 166.31898 24.869411-247.636007L839.891354 455.565686 622.599446 360.240621zM582.59022 548.860513l-16.920368 168.491459L448.549388 604.514043l-157.852144 39.160905 69.590961-154.379043-82.835613-147.642618 164.009378 18.145266L547.950282 233.535871l29.091572 162.592099 151.108556 66.289776L582.59022 548.860513z" p-id="6669"></path><path d="M425.474856 868.844268c-7.312546 27.294646-35.368532 43.493583-62.664202 36.177967l0 0c-27.29567-7.312546-43.493583-35.368532-36.178991-62.663178l26.485211-98.844216c7.312546-27.294646 35.368532-43.493583 62.664202-36.178991l0 0c27.294646 7.312546 43.493583 35.368532 36.178991 62.664202L425.474856 868.844268z" p-id="6670"></path></svg>