<svg xmlns="http://www.w3.org/2000/svg" width="15" height="22" viewBox="0 0 15 22">
  <path fill="#E1E1E1" fill-rule="evenodd" d="M14.6979839,13.6983123 C14.3043548,13.2990409 13.6659677,13.2990409 13.2723387,13.6983123 L8.5416129,18.4958662 L8.5416129,1.02230483 C8.5416129,0.457747212 8.09016129,0 7.53354839,0 C6.97677419,0 6.52548387,0.457747212 6.52548387,1.02230483 L6.52548387,18.4958662 L1.79475806,13.6984758 C1.40096774,13.2992862 0.762741935,13.2992862 0.369112903,13.6984758 C-0.0246774194,14.0977472 -0.0246774194,14.7449888 0.369112903,15.1442602 L6.82072581,21.6868476 C7.01741935,21.8864015 7.27556452,21.9862602 7.53354839,21.9862602 C7.79153226,21.9862602 8.04943548,21.8864015 8.24637097,21.6868476 L14.6979839,15.1440967 C15.0916935,14.7448253 15.0916935,14.0975836 14.6979839,13.6983123 L14.6979839,13.6983123 Z"/>
</svg>
