<?xml version="1.0" encoding="UTF-8"?>
<svg width="390px" height="200px" viewBox="0 0 390 200" version="1.1" xmlns="http://www.w3.org/2000/svg" xmlns:xlink="http://www.w3.org/1999/xlink">
    <!-- Generator: Sketch 41.2 (35397) - http://www.bohemiancoding.com/sketch -->
    <title>Group</title>
    <desc>Created with Sketch.</desc>
    <defs></defs>
    <g id="Page-1" stroke="none" stroke-width="1" fill="none" fill-rule="evenodd" fill-opacity="0.92">
        <g id="Group" fill="#6190E8">
            <path d="M330.055449,0.638338415 L389.761525,0.638338415 L389.761525,40.7964939 L330.08863,40.7964939 M325.257105,40.7964939 L325.257105,82.2408537 M329.978384,82.2408537 L384.909423,82.2408537 L384.909423,121.112805 L329.950555,121.112805 M325.257105,121.112805 L325.257105,200 L278.876715,200 L278.876715,0.638338415 L325.285948,0.638338415 L325.257105,121.112805 Z M52.0649339,0.638338415 L114.11454,0.638338415 L114.11454,40.7964939 L52.0649339,40.7964939 L52.0649339,0.638338415 Z M52.3963578,77.3818598 L109.547855,77.3818598 L109.547855,116.396723 L52.2058843,116.396723 L52.3963578,77.3818598 Z M52.1189639,159.270198 L114.11454,159.270198 L114.11454,200 L52.2418681,200 L52.1189639,159.270198 Z M47.4889592,200 L0.660969519,200 L0.660969519,0.638338415 L47.04136,0.638338415 L47.04136,77.3818598 L47.4889592,200 Z M193.926867,0.638338415 L193.926867,159.270198 L193.926867,0.638338415 Z M197.913665,159.270198 L257.860452,159.270198 L257.860452,200 L197.977868,200 L197.913665,159.270198 Z M193.62394,200 L147.403768,200 L147.403768,0.638338415 L193.926867,0.638338415 L193.62394,200 Z" id="Combined-Shape"></path>
        </g>
    </g>
</svg>