<?xml version="1.0" standalone="no"?><!DOCTYPE svg PUBLIC "-//W3C//DTD SVG 1.1//EN" "http://www.w3.org/Graphics/SVG/1.1/DTD/svg11.dtd"><svg t="1480773444277" class="icon" style="" viewBox="0 0 1024 1024" version="1.1" xmlns="http://www.w3.org/2000/svg" p-id="5305" xmlns:xlink="http://www.w3.org/1999/xlink" width="200" height="200"><defs><style type="text/css"></style></defs><path d="M896.121 424.16c-39.6-206.46-216-362.16-427.801-362.16-240.96 0-436.32 201.479-436.32 450 0 248.521 195.36 450 436.32 450 155.7 0 291.959-84.361 369.18-210.96-21.12-1.319-40.8-7.319-58.56-16.919-68.16 101.399-181.801 167.879-310.62 167.879-208.8 0-378.121-174.601-378.121-390s169.319-390 378.18-390c181.26 0 331.020 132.121 367.86 307.559-44.759 16.681-76.921 60.54-76.921 112.439 0 66.24 52.080 120 116.34 120s116.34-53.76 116.34-120c0-59.040-41.34-107.82-95.879-117.84z" p-id="5306"></path></svg>