<?xml version="1.0" standalone="no"?><!DOCTYPE svg PUBLIC "-//W3C//DTD SVG 1.1//EN" "http://www.w3.org/Graphics/SVG/1.1/DTD/svg11.dtd"><svg t="1480773163665" class="icon" style="" viewBox="0 0 1024 1024" version="1.1" xmlns="http://www.w3.org/2000/svg" p-id="4446" xmlns:xlink="http://www.w3.org/1999/xlink" width="200" height="200"><defs><style type="text/css"></style></defs><path d="M66 94l440 0 0 320-88.82569 0.7156 0-240-270 0 0 500 30 0L176 764 66 764z" p-id="4447"></path><path d="M220.75659 441.23366 220 924c240.73084-2.0337 497.75466-0.84493 750 0l-2.6465-482.76634z" p-id="4448"></path><path d="M585.10092 142.69725l80 70 0-50c95.41085-1.51751 119.752 84.81394 120 150l-50-40 0 110 120 0-30-30 0-80c0-70-50-150-100-160l-60 0 0-60.000002z" p-id="4449"></path><path d="M320.13121 532.9936l551.3706 0L870 834c-185.20876 0.47285-373.00616 2.26545-550 0z" p-id="4450"></path><path d="M400 584l90 0 0 180-142.31192 0.6055L350 674l50 0z" p-id="4451"></path></svg>