<?xml version="1.0" standalone="no"?><!DOCTYPE svg PUBLIC "-//W3C//DTD SVG 1.1//EN" "http://www.w3.org/Graphics/SVG/1.1/DTD/svg11.dtd"><svg t="1480766711257" class="icon" style="" viewBox="0 0 1024 1024" version="1.1" xmlns="http://www.w3.org/2000/svg" p-id="1905" xmlns:xlink="http://www.w3.org/1999/xlink" width="200" height="200"><defs><style type="text/css"></style></defs><path d="M938.666667 426.666667 938.666667 170.666667c0-22.698667-19.882667-42.666667-42.666667-42.666667L128 128C105.216 128 85.333333 147.968 85.333333 170.666667l0 554.666667c0 22.698667 19.882667 42.666667 42.666667 42.666667l298.666667 0 0 85.333333c0 0-42.666667 0-85.333333 0s-42.666667 42.666667-42.666667 42.666667l383.957333 0c0 42.666667 42.709333 42.666667 42.709333 42.666667L938.666667 938.666667c0 0 42.666667 0 42.666667-42.666667s0-384 0-426.666667C981.333333 426.666667 938.709333 426.666667 938.666667 426.666667zM128 682.666667 128 170.666667l768 0 0 256-170.666667 0c0 0-42.666667 0-42.666667 42.666667 0 21.333333 0 117.333333 0 213.333333L128 682.666667zM597.333333 853.333333l0-85.333333 85.290667 0c0 32.896 0 62.378667 0 85.333333L597.333333 853.333333zM832 896c-11.776 0-21.333333-9.557333-21.333333-21.333333 0-11.776 9.557333-21.333333 21.333333-21.333333s21.333333 9.557333 21.333333 21.333333C853.333333 886.442667 843.776 896 832 896zM938.666667 810.666667l-213.376 0 0-341.333333L938.666667 469.333333 938.666667 810.666667z" p-id="1906"></path></svg>