<?xml version="1.0" standalone="no"?><!DOCTYPE svg PUBLIC "-//W3C//DTD SVG 1.1//EN" "http://www.w3.org/Graphics/SVG/1.1/DTD/svg11.dtd"><svg t="1480767048578" class="icon" style="" viewBox="0 0 1025 1024" version="1.1" xmlns="http://www.w3.org/2000/svg" p-id="2093" xmlns:xlink="http://www.w3.org/1999/xlink" width="200.1953125" height="200"><defs><style type="text/css"></style></defs><path d="M1023.568719 658.216c-3.34-27.198-18.472-48.292-41.59-64.832 5.714 4.08 10.55 7.532-0.11-0.082-14.378-10.262-6.76-4.822-0.094-0.064-57-40.602-131.352-31.578-193.466-9.022-24.894-40.59-25.974-71.566-11.632-115.874 1.858-5.6 0.59-8.708-5.248-11.208-14.172-6.06-34.582-2.854-48.844 0.926-4.924 1.292-8.508 3.8-9.6 8.762-10.308 48.486-42.018 92.896-69.656 133.772-19.462-37.304-17.92-66.174-4.828-105.032 1.596-4.732 0.862-7.248-3.874-9.758-14.52-7.514-36.802-3.824-51.6 0.552-17.018 4.964-42.58 89.188-50.744 105.892-17.062 34.884-32.182 89.33-61.17 117.004-24.6-31.614 45.052-103.034 21.764-131.702-7.876-9.696-22.126-9.446-31.172-1.232 2.17-15.216 3.296-25.218-0.64-38.126-4.162-13.58-14.722-21.374-30.18-20.98-35.99 1.054-67.686 27.63-89.282 52.794-20.554 24.21-74.762 39.254-103.906 53.854-50.064-43.614-158.442-89.894-161.264-164.162-3.056-83.692 96.638-140.49 163.194-174.456 86.56-44.208 219.922-99.216 318.276-50.872 26.098 12.828 36.598 40.342 29.414 66.696-18.736 68.732-94.396 114.586-160.206 135.614-32.378 10.35-67.938 18.054-102.2 16.052-45.91-2.686-81.66-30.448-86.562-32.172-4.098-0.778-3.776 4.522-2.694 7.328 47.632 124.866 288.834 33.362 351.912-30.742 30.378-30.842 48.826-60.73 56.702-107.788 9.232-55.166-31.268-89.684-62.008-103.914C426.424719 113.3 210.988719 207.78 93.154719 304.098c-51.136 41.802-115.104 108.22-85.748 177.892 31.86 75.61 129.472 114.38 193.006 160.624C149.004719 668.16 84.688719 694.58 51.376719 742.48c-19.048 27.458-25.806 56.718-11.622 87.932 25.144 55.136 116.57 31.244 155.146 6.942 35.34-22.26 59.126-52.14 69.4-90.456 8.91-33.218 7.082-67.732-7.712-99.024l57.17-28.916c-15.394 46.152-22.194 104.006 9.762 145.71 12.804 16.676 46.034 17.35 59.634 0.622 17.632-21.886 29.328-49.31 41.006-74.412-1.364 18.746-3.712 39.992 2.754 56.33 7.42 18.746 24.252 22.582 41.584 10.686 53.04-36.406 86.796-137.304 112.926-196.124 7.104 25.658 14.946 49.096 27.914 72.752 3.204 5.806 2.814 9.548-1.592 14.39-19.37 21.35-65.652 56.958-70.138 85.798-1.048 6.742 3.426 13.198 11.372 14.74 31.146 6.216 65.676-5.062 90.964-22.156 26.376-17.844 34.892-42.174 28.49-71.03-9.152-41.542 21.986-87.96 51.602-122.06 5.438 25.816 13.632 50.662 28.286 73.212-26.15 22.966-65.16 55.528-59.558 93.878 1.976 13.73 14.27 22.602 29.028 19.472 31.566-6.648 58.832-20.226 78.74-44.292 18.046-21.71 11.584-45.402 3.712-69.27 47.744-13.63 96.044-16.354 143.662-0.054 22.99 7.82 41.51 21 52.496 41.636 13.452 25.288 5.878 48.584-20.1 65.208-6.574 4.208-11.124 7.666-8.9 9.486 2.224 1.822 9.8 4.226 26.568-6.304 16.768-10.534 27.02-24.766 29.646-43.45C1024.142719 668.56 1024.126719 663.392 1023.568719 658.216zM225.892719 708.734c-2.716 33.346-19.272 60.386-46.35 82.228-15.234 12.316-34.204 22.352-53.04 24.184-18.836 1.834-33.502-2.922-34.756-22.46-3.528-54.986 81.846-108.848 129.25-125.066 4.04 13.72 6.022 27.332 4.864 41.174L225.892719 708.734zM432.096719 563.828c-7.806 44.618-29.66 124.694-64.628 156.672-4.712 4.286-9.22 4.036-11.618-1.542-20.69-48.118 7.342-147.338 66.164-162.656C428.928719 554.524 433.218719 557.466 432.096719 563.828zM572.718719 727.364c16.844-17.924 33.668-35.832 50.538-53.854C625.342719 693.552 588.114719 733.438 572.718719 727.364zM734.146719 691.972c-4.696 2.546-15.242 5.03-15.654 1.67-2.964-24.17 23.632-49.748 40.134-61.734C767.532719 654.594 756.990719 679.576 734.146719 691.972z" p-id="2094"></path></svg>