<?xml version="1.0" standalone="no"?><!DOCTYPE svg PUBLIC "-//W3C//DTD SVG 1.1//EN" "http://www.w3.org/Graphics/SVG/1.1/DTD/svg11.dtd"><svg t="1480774073051" class="icon" style="" viewBox="0 0 1024 1024" version="1.1" xmlns="http://www.w3.org/2000/svg" p-id="6535" xmlns:xlink="http://www.w3.org/1999/xlink" width="200" height="200"><defs><style type="text/css"></style></defs><path d="M303.926034 908.054291 153.183821 664.981207l111.573121-72.528873 107.364263 134.212748L372.121206 261.461897l156.732647 0 0 195.47809 341.962326 85.491093 0 371.08562-1.908466 3.375887-32.735565 0 6.147-10.875698L842.319148 564.67878l-85.49007-21.372773 0 188.353832L728.332047 731.659839 728.332047 536.181749l-85.491093-21.372773 0 188.353832-28.497031 0L614.343923 507.685741l-85.491093-21.372773 0 245.346871-28.497031 0L500.355799 479.18871l0-18.248619L500.355799 289.957905 400.618237 289.957905l0 517.939269-141.983735-177.471994-66.532299 43.239803 134.226051 216.439494 27.333532 26.787086-40.717354 0L303.926034 908.054291zM726.161614 289.957905l144.654564 0 0-28.497031-144.654564 0 0-28.377304-73.823356 42.627866 73.823356 42.62889L726.161614 289.957905zM353.122503 413.233556l0-36.984333c-26.307156-25.486464-42.7435-61.10366-42.7435-100.538811 0-77.253478 62.851467-140.104945 140.108015-140.104945s140.108015 62.851467 140.108015 140.104945c0 39.436174-16.436344 75.05337-42.744523 100.538811l0 36.984333c43.062771-30.578436 71.241554-80.806397 71.241554-137.524167 0-92.969415-75.635631-168.601976-168.605046-168.601976s-168.605046 75.632561-168.605046 168.601976C281.881972 332.427158 310.060755 382.65512 353.122503 413.233556z" p-id="6536"></path></svg>