<?xml version="1.0" encoding="UTF-8"?>
<svg width="701px" height="799px" viewBox="0 0 701 799" version="1.1" xmlns="http://www.w3.org/2000/svg" xmlns:xlink="http://www.w3.org/1999/xlink">
    <!-- Generator: Sketch 41.2 (35397) - http://www.bohemiancoding.com/sketch -->
    <title>Group</title>
    <desc>Created with Sketch.</desc>
    <defs></defs>
    <g id="Page-1" stroke="none" stroke-width="1" fill="none" fill-rule="evenodd">
        <g id="webpack" fill="#000000">
            <g id="Group">
                <path d="M172.2,95.42449 L0.836735,190.510204 L0.836735,604.812245 L70.322449,642.95102 C107.938776,663.32653 151.82449,687.359183 166.97551,695.718367 C181.604081,704.6 194.142857,710.346938 194.142857,708.779592 C194.142857,707.212245 180.559184,698.330612 164.363265,688.926531 C147.644898,679.522449 106.893877,656.012245 73.457143,636.159184 L12.330612,600.632653 L10.240816,497.187755 C7.628571,340.97551 11.285714,203.048979 18.6,207.228571 C22.257143,209.318367 21.734694,207.75102 17.555102,202.526531 C12.330612,195.734694 15.987755,192.077551 43.677551,177.44898 C61.963265,168.044898 102.714286,145.579592 134.061224,127.816327 C165.930612,110.575511 198.844897,92.812245 207.204082,88.632653 C216.085715,84.453061 223.922449,79.228571 225.489796,77.661224 C227.057143,76.093877 255.791837,59.897959 289.228571,42.134694 L350.355102,9.742857 L412.004082,42.134694 C445.963266,59.897959 474.69796,76.093878 476.265306,77.661224 C477.832653,79.228571 492.983673,87.587755 510.22449,96.469388 C545.751021,114.232653 613.146939,152.371429 617.326531,156.55102 C618.893878,158.118367 635.612245,167.522449 654.942857,176.926531 L689.946939,194.167347 L690.469388,396.877551 L690.469388,599.587755 L629.342857,635.636735 C571.873469,669.595919 552.020408,681.089796 476.265306,722.363265 C460.591837,731.244898 428.722449,748.485714 406.257143,761.02449 C383.269388,773.563266 359.759184,785.057143 354.012245,786.102041 C346.697959,788.191837 323.187755,777.742857 285.571429,756.322449 C229.146939,724.453061 193.09796,706.167347 199.889796,712.959184 C201.979592,714.526531 236.983674,734.902041 277.734694,757.367347 L351.922449,798.118367 L375.955102,784.012245 C389.538775,776.17551 467.906122,732.812245 550.97551,687.359184 L700.918367,604.812245 L700.918367,190.510204 L528.510204,94.902041 C433.42449,42.657143 352.967347,-0.183673 349.310204,0.338776 C346.17551,0.338776 266.240816,43.179592 172.2,95.42449 Z" id="Shape"></path>
                <path d="M261.016327,246.934694 L173.244898,295 L173.244898,500.322449 L259.971429,547.865306 C307.514286,573.987755 349.832653,595.408163 353.489796,595.408163 C357.669388,595.408163 362.371429,592.795918 364.461224,589.661224 C366.55102,586.004081 364.461224,584.959183 357.146939,587.04898 C346.697959,590.706123 332.069388,583.391837 222.877551,519.653061 C203.02449,508.159183 185.783673,495.097959 184.738776,491.440816 C182.126531,478.379592 183.693878,301.791836 186.828571,297.089796 C188.395918,294.477551 203.024489,285.073469 219.220408,276.714286 C235.416326,267.832653 271.465306,247.979592 298.632653,232.828571 L348.265306,204.616327 L387.44898,226.036735 C408.869388,237.530613 434.991837,251.636735 444.918367,257.383673 C454.844898,263.130612 474.17551,273.579591 487.236735,279.84898 C500.820408,286.640817 512.836735,295.522449 514.404082,299.179592 C515.971429,302.836735 516.493878,349.334694 515.971429,402.102041 L515.44898,497.710204 L447.530612,536.371429 C367.595918,582.346939 347.220408,598.020409 418.795918,559.359184 C445.963265,544.208164 480.967347,525.922449 496.118367,518.085714 L523.285714,504.502041 L523.285714,293.432653 L437.081633,245.889796 C390.061225,219.767347 350.877551,198.346939 349.832653,198.346939 C348.787755,198.346939 309.081633,220.289796 261.016327,246.934694 L261.016327,246.934694 Z" id="Shape"></path>
            </g>
        </g>
    </g>
</svg>