<?xml version="1.0" standalone="no"?><!DOCTYPE svg PUBLIC "-//W3C//DTD SVG 1.1//EN" "http://www.w3.org/Graphics/SVG/1.1/DTD/svg11.dtd"><svg t="1480768118685" class="icon" style="" viewBox="0 0 1280 1024" version="1.1" xmlns="http://www.w3.org/2000/svg" p-id="2925" xmlns:xlink="http://www.w3.org/1999/xlink" width="250" height="200"><defs><style type="text/css"></style></defs><path d="M644.1984 315.1872c31.6416 0 52.736-21.1456 52.736-52.6848 0-31.8464-21.0944-52.48-52.736-52.48-31.6416 0-63.3856 20.6336-63.3856 52.48 0 31.5392 31.7952 52.736 63.3856 52.736zM349.3376 210.0224c-31.5904 0-63.5392 20.6336-63.5392 52.48 0 31.5392 31.9488 52.736 63.5392 52.736 31.488 0 52.5824-21.1968 52.5824-52.736 0-31.8464-21.0944-52.48-52.5824-52.48z m925.1328 442.4704c0-166.656-154.624-308.6848-344.3712-323.4304a18.9952 18.9952 0 0 0-0.1024-6.4C891.9552 145.2544 701.1328 11.52 486.1952 11.52 243.3024 11.52 45.6704 180.8896 45.6704 389.12c0 111.6672 56.9856 212.3264 165.0688 291.6864L173.056 794.112a19.3024 19.3024 0 0 0 18.2784 25.2416 19.3536 19.3536 0 0 0 8.5504-2.048l141.4656-70.7584 17.408 3.584c43.52 8.9088 81.152 16.6912 127.488 16.6912 13.568 0 51.0976-5.0176 54.272-9.0112 50.9952 127.6416 191.5392 219.7504 356.9152 219.7504 42.3424 0 85.248-10.24 123.7504-19.8656l109.0048 59.5968a19.3024 19.3024 0 0 0 21.248-1.8944 19.1488 19.1488 0 0 0 6.2976-20.4288l-27.8016-92.5696c93.3376-73.728 144.5376-161.9968 144.5376-249.856z m-751.7696 62.8736c-12.0832 1.024-24.2688 1.536-36.4032 1.536-40.9088 0-75.52-7.0656-115.5072-15.36l-23.2448-4.6592a17.8688 17.8688 0 0 0-11.8784 1.536l-102.1952 51.2 26.5216-79.7696a18.5344 18.5344 0 0 0-6.9632-21.0432C150.3744 577.2288 98.304 489.984 98.304 389.632c0-180.3776 174.08-327.168 387.9936-327.168 189.0816 0 356.5056 114.9952 391.0656 268.032-198.2976 2.56-358.7072 141.9776-358.7072 313.1904 0 24.8832 3.7888 48.9984 10.1376 72.2944a18.432 18.432 0 0 0-6.144-0.6656z m563.712 153.8048a18.2784 18.2784 0 0 0-6.5024 19.8656l17.3056 57.3952-70.912-38.7584a18.2272 18.2272 0 0 0-13.2096-1.6896c-37.9904 9.6256-77.312 19.5072-115.6608 19.5072-177.8688 0-322.56-122.2144-322.56-272.4864s144.64-272.4864 322.56-272.4864c174.5408 0 321.9968 124.7744 321.9968 272.4864 0 74.9056-47.2576 151.7056-133.0176 216.1664z m-305.152-353.6896c-21.0944 0-42.1888 21.248-42.1888 42.2912 0 21.1968 21.0944 42.1376 42.1888 42.1376 31.6416 0 52.5824-20.9408 52.5824-42.1376 0-21.0944-20.9408-42.2912-52.5824-42.2912z m231.5776 0c-20.736 0-41.8304 21.248-41.8304 42.2912 0 21.1968 21.0944 42.1376 41.8304 42.1376 31.5904 0 52.8896-20.9408 52.8896-42.1376 0-21.0944-21.248-42.2912-52.8896-42.2912z" fill="#000000" p-id="2926"></path></svg>
