<?xml version="1.0" standalone="no"?><!DOCTYPE svg PUBLIC "-//W3C//DTD SVG 1.1//EN" "http://www.w3.org/Graphics/SVG/1.1/DTD/svg11.dtd"><svg t="1480769841121" class="icon" style="" viewBox="0 0 1024 1024" version="1.1" xmlns="http://www.w3.org/2000/svg" p-id="3642" xmlns:xlink="http://www.w3.org/1999/xlink" width="200" height="200"><defs><style type="text/css"></style></defs><path d="M895.739313 831.783187c0 34.726919-29.199019 63.956637-63.956637 63.956637l-641.659035 1.061169c-34.726919 0-62.894446-28.167526-62.894446-62.956867l1.030469-641.627313c0-34.788318 29.199019-63.956637 63.956637-63.956637l351.761506 0 0-63.956637-351.761506 0c-69.484537 0-127.913275 71.01438-127.913275 140.468219L64.303027 833.844126c0 69.51626 56.337099 125.852336 125.820614 125.852336l629.073392 0c69.483514 0 140.498918-58.46046 140.498918-127.913275l0-351.761506-63.956637 0L895.739313 831.783187zM926.99927 64.303538 703.869401 64.303538c-18.143219 0-31.94762 14.678304-31.978319 31.978319-0.031722 17.301038 13.8351 31.978319 31.978319 31.978319l140.529617-1.061169L361.944937 587.386968c-12.771885 12.178367-12.771885 31.914874 0 44.094264 12.742209 12.17939 33.44574 12.17939 46.219671 0l486.606657-464.183971 0.968048 152.833851c-0.031722 17.300015 13.8351 31.978319 31.978319 31.978319 18.143219-0.062422 31.946596-14.678304 31.978319-31.978319L959.69595 95.470375C959.726649 78.169337 945.173189 64.24214 926.99927 64.303538z" p-id="3643"></path></svg>